<svg width="70" height="70" viewBox="0 0 70 70" fill="none" xmlns="http://www.w3.org/2000/svg">
    <rect width="70" height="70" rx="12" fill="#72B083"/>
    <path d="M0 58h70c0 6.627-5.373 12-12 12H12C5.373 70 0 64.627 0 58z" fill="#CF9D52"/>
    <path d="M4 56a3 3 0 0 1 3-3h8a3 3 0 0 1 3 3v2H4v-2z" fill="#3786E1"/>
    <rect x="39" y="43.242" width="6" height="27.707" rx="3" transform="rotate(-45 39 43.242)" fill="#fff"/>
    <circle cx="58.592" cy="58.59" r="3" transform="rotate(-45 58.592 58.59)" fill="#000" fill-opacity=".1"/>
    <path d="M9.878 15.9c.166-.21.442-.356.726-.459.523-.19.916-.675.964-1.23.05-.575.236-1.158.732-1.547.322-.253.612-.347.951-.425.273-.062.588.041.854.088.283.05.544-.165.7-.407.166-.26.406-.574.669-.717.397-.218.764-.203 1.136-.203.593 0 1.153.216 1.68.483.463.235.827.562 1.129.99.282.401.831.436 1.283.246a1.09 1.09 0 0 1 .062-.024c.308-.108.65-.07.97-.07.694 0 1.433-.051 2.042.353.992.658 1.695 1.755 1.407 3.024a.982.982 0 0 1-.214.441c-.05.06.34.043.382.047.416.031.747.423 1.003.728l.005.006c.351.416.635 1.017.64 1.58.008.717-.327 1.518-.749 2.073-.913 1.204-2.453 1.852-3.928 1.702-.61-.062-1.088-1.189-1.779-.849-.29.144-.366.42-.588.596-.924.73-2.095.706-3.203.648h-.016c-.632-.033-1.344-.07-1.888-.431-.498-.33-1.066-.876-1.084-1.534-.005-.17-.182-.302-.33-.22-.548.306-1.539.767-2.178.52-.906-.352-1.92-1.329-2.17-2.32-.273-1.078.136-2.262.792-3.09zM28.858 42.269c.242-.577.5-1.942.594-2.894.128-1.296-.243-2.36-.546-2.696-.308-.34-.52-.524-.962-.731-.522-.245-1.014-.301-1.489-.309-.629-.01-1.325.068-1.903.309-.351.146-.618.486-.863.733-.326.33-.668.781-.842 1.177-.2.457-.343.928-.676 1.34-.34.418-.789.77-1.24 1.105-1.096.813-2.343 1.396-3.598 2.015-.233.115-.509.181-.763.258-.27.082-.54.23-.822.28-.53.095-.813.659-.548 1.128.736 1.308 2.39 3.638 5.143 4.416 2.125.6 3.882.022 5.58-.913a6.548 6.548 0 0 0 1.98-1.648c.393-.498.447-1.055.609-1.614.098-.339.132-.706.188-1.053.043-.27.053-.653.158-.903z" stroke="#fff" stroke-linecap="round"/>
    <path d="M27.64 38.357c-.021.047-.11.366-.08.239.015-.06.018-.118.031-.178M24.03 40.194c-.78.51-1.43 1.186-2.21 1.696-.555.364-1.104.702-1.697.997-.497.247-1.04.432-1.57.59-.131.038-.274.087-.41.101-.045.005-.214-.008-.168.075.077.139.107.307.15.46.062.229.189.463.314.665.301.485.641.832 1.081 1.186.889.714 2.01.857 3.12.736.566-.061 1.04-.297 1.537-.544.233-.115.454-.266.65-.437.25-.217.51-.514.693-.788.133-.2.189-.493.257-.722.07-.234.103-.465.154-.7.046-.212.029-.481.008-.695-.018-.2-.014-.445-.084-.635-.106-.287-.149-.56-.35-.802-.093-.11-.169-.237-.264-.35-.084-.101-.17-.185-.255-.287-.134-.16-.322-.248-.463-.39-.056-.057-.244-.183-.326-.174M29.55 38.523c.165.067.31.176.472.25.081.036.157.08.234.124.017.01.118.048.073.067-.212.087-.446.112-.653.213-.088.043-.042-.026-.13.014M23.032 48.603c-.023.447-.171.939-.123 1.38M25.755 48.033c.115.25.28.565.31.84M42.77 20.51c-.608 2.597.478 4.622 2.613 6.107.975.678 1.76.83 2.843 1.083 1.41.33 2.791.687 4.208.35 1.094-.26 2.017-1.327 2.745-2.122.412-.448.94-1.115 1.207-1.662.41-.837.568-1.516.539-2.303-.09-2.384-1.38-5.025-3.389-6.366-1.029-.687-2.764-.893-3.965-.89-.96.003-1.927-.012-2.82.402-2.157 1-3.467 3.204-3.98 5.4zM48.771 19.45l-.1.428M51.178 20l-.112.476" stroke="#fff" stroke-linecap="round"/>
    <path d="M47.245 21c.037.101.076.205.102.31.045.18.167.35.287.487.397.451 1.011.608 1.568.762.28.078.551.132.843.12a4.33 4.33 0 0 0 .81-.132c.23-.055.431-.135.645-.235.06-.027.22-.081.237-.155M39.282 13.043c.855.71 1.69 1.418 2.601 2.055M56.107 28.86a44.877 44.877 0 0 0 1.674 2.582c.264.376.458.934.76 1.257M40.708 25.939c-.7.245-1.4.481-2.103.717-.502.168-1.187.288-1.605.616M47.133 30.582c-.502 1.237-.839 2.534-1.324 3.778M61.498 18.989c-.675.252-1.325.562-2.008.787M53.276 10.586c-.387.66-.787 1.48-.962 2.228" stroke="#fff" stroke-linecap="round"/>
</svg>
