<svg width="70" height="70" viewBox="0 0 70 70" fill="none" xmlns="http://www.w3.org/2000/svg">
    <rect width="70" height="70" rx="12" fill="#7477BF"/>
    <path d="M0 58h70c0 6.627-5.373 12-12 12H12C5.373 70 0 64.627 0 58z" fill="#696BAC"/>
    <circle cx="17.838" cy="38.514" r="9.838" fill="#000" fill-opacity=".1"/>
    <path d="M15.379 18.838h4.919v17.217a2.46 2.46 0 1 1-4.92 0V18.838z" fill="#D9D9D9"/>
    <circle cx="17.838" cy="18.838" r="9.838" fill="#FF364E"/>
    <circle cx="41.651" cy="34.49" r="4.919" transform="rotate(-45 41.651 34.49)" fill="#000" fill-opacity=".1"/>
    <circle cx="50.347" cy="43.188" r="4.919" transform="rotate(-45 50.347 43.188)" fill="#000" fill-opacity=".1"/>
    <circle cx="50.347" cy="25.795" r="4.919" transform="rotate(-45 50.347 25.795)" fill="#000" fill-opacity=".1"/>
    <circle cx="59.043" cy="34.49" r="4.919" transform="rotate(-45 59.043 34.49)" fill="#000" fill-opacity=".1"/>
    <circle cx="41.957" cy="32.85" r="4.919" transform="rotate(-45 41.957 32.85)" fill="#FFC700"/>
    <circle cx="50.653" cy="41.547" r="4.919" transform="rotate(-45 50.653 41.547)" fill="#FFC700"/>
    <circle cx="50.653" cy="24.154" r="4.919" transform="rotate(-45 50.653 24.154)" fill="#FFC700"/>
    <circle cx="59.348" cy="32.85" r="4.919" transform="rotate(-45 59.348 32.85)" fill="#FFC700"/>
</svg>
