<svg width="86" height="86" viewBox="0 0 86 86" fill="none" xmlns="http://www.w3.org/2000/svg">
    <path fill="#F5EDDC" d="M0 0h86v86H0z"/>
    <g opacity=".6" fill="#D93400">
        <path d="M38.298 38.948c-.009-.173.086-.346.25-.404 2.008-.712 3.444-2.603 3.444-4.824 0-2.831-2.333-6.72-5.212-6.72-2.88 0-5.213 3.889-5.213 6.72 0 2.246 1.469 4.155 3.513 4.848.157.053.249.216.24.38l-.662 12.95a2.152 2.152 0 0 0 2.151 2.26 2.152 2.152 0 0 0 2.151-2.26l-.662-12.95zM50.098 27.018a.92.92 0 0 0-.92.92v3.64a.708.708 0 0 1-1.418 0v-2.824c0-.594-.663-.89-1.03-.423-1.105 1.4-1.803 3.298-1.803 4.874a5.237 5.237 0 0 0 3.438 4.917c.21.077.326.305.315.528l-.662 12.95a2.152 2.152 0 0 0 2.15 2.26 2.152 2.152 0 0 0 2.152-2.26l-.662-12.95c-.011-.223.105-.451.314-.528a5.237 5.237 0 0 0 3.439-4.917c0-1.647-.763-3.646-1.955-5.06-.376-.446-1.02-.145-1.02.438v2.995a.708.708 0 0 1-1.417 0v-3.64a.92.92 0 0 0-.921-.92zM30.467 60.855c0-.581.194-.766.786-.766h.194c.546 0 .74.11 1.073.942l1.267 3.158 1.211-3.149c.305-.803.537-.951 1.082-.951h.194c.592 0 .786.185.786.766v5.394c0 .332-.259.48-.564.48-.286 0-.555-.148-.555-.48v-5.126a6.67 6.67 0 0 1-.305.998l-1.22 3c-.158.389-.315.49-.63.49-.379 0-.536-.11-.693-.517L31.9 62.121a8.528 8.528 0 0 1-.324-.998v5.126c0 .332-.268.48-.564.48-.277 0-.545-.148-.545-.48v-5.394zM38.559 60.874c0-.582.194-.767.786-.767h3.153c.278 0 .407.222.407.49 0 .258-.13.49-.407.49h-2.765v1.745h2.58c.268 0 .398.221.398.48s-.13.48-.398.48h-2.58v1.903h2.83c.277 0 .407.23.407.489 0 .268-.13.49-.407.49h-3.218c-.592 0-.786-.185-.786-.767v-5.033zM48.263 60.532c0-.332.268-.48.546-.48.277 0 .545.148.545.48v5.393c0 .582-.194.767-.786.767-.453 0-.628-.092-1.1-.933l-1.748-3.121a4.415 4.415 0 0 1-.444-1.062v4.673c0 .332-.268.48-.546.48-.277 0-.545-.148-.545-.48v-5.394c0-.581.194-.766.786-.766.453 0 .629.102 1.1.933l1.748 3.121c.185.332.333.647.444 1.062v-4.673zM50.73 60.56c0-.351.277-.508.591-.508.315 0 .592.157.592.508v3.39c0 1.31.435 1.754 1.406 1.754.971 0 1.406-.444 1.406-1.755v-3.39c0-.35.277-.507.591-.507.315 0 .592.157.592.508v3.37c0 2.18-.915 2.845-2.589 2.845-1.665 0-2.59-.665-2.59-2.844V60.56z"/>
    </g>
</svg>
