<svg width="375" height="240" viewBox="0 0 375 240" fill="none" xmlns="http://www.w3.org/2000/svg">
    <path fill="#F5EDDC" d="M0 0h375v240H0z"/>
    <g opacity=".6" fill="#D93400">
        <path d="M176.557 118.876c-.019-.375.186-.749.54-.875 4.344-1.543 7.449-5.638 7.449-10.448 0-6.131-5.047-14.553-11.273-14.553S162 101.422 162 107.553c0 4.865 3.176 8.999 7.598 10.5.338.115.537.467.518.823l-1.432 28.044a4.659 4.659 0 1 0 9.305 0l-1.432-28.044zM202.076 93.04c-1.1 0-1.991.891-1.991 1.99v7.885a1.532 1.532 0 0 1-3.064 0v-6.116c0-1.286-1.434-1.927-2.23-.917-2.389 3.032-3.898 7.142-3.898 10.557 0 4.891 3.096 9.058 7.436 10.648.453.166.705.661.68 1.143l-1.432 28.044a4.658 4.658 0 1 0 9.305 0l-1.432-28.044c-.025-.482.227-.977.68-1.143 4.339-1.59 7.436-5.758 7.436-10.648 0-3.569-1.649-7.898-4.227-10.96-.813-.966-2.207-.313-2.207.95v6.486a1.532 1.532 0 0 1-3.064 0v-7.884c0-1.1-.892-1.992-1.992-1.992zM159.62 166.32c0-1.26.42-1.66 1.7-1.66h.42c1.18 0 1.6.24 2.32 2.04l2.74 6.84 2.62-6.82c.66-1.74 1.16-2.06 2.34-2.06h.42c1.28 0 1.7.4 1.7 1.66V178c0 .72-.56 1.04-1.22 1.04-.62 0-1.2-.32-1.2-1.04v-11.1c-.24 1.02-.44 1.6-.66 2.16l-2.64 6.5c-.34.84-.68 1.06-1.36 1.06-.82 0-1.16-.24-1.5-1.12l-2.58-6.44c-.22-.54-.42-1.14-.7-2.16V178c0 .72-.58 1.04-1.22 1.04-.6 0-1.18-.32-1.18-1.04v-11.68zM177.12 166.36c0-1.26.42-1.66 1.7-1.66h6.82c.6 0 .88.48.88 1.06 0 .56-.28 1.06-.88 1.06h-5.98v3.78h5.58c.58 0 .86.48.86 1.04s-.28 1.04-.86 1.04h-5.58v4.12h6.12c.6 0 .88.5.88 1.06 0 .58-.28 1.06-.88 1.06h-6.96c-1.28 0-1.7-.4-1.7-1.66v-10.9zM198.108 165.62c0-.72.58-1.04 1.18-1.04s1.18.32 1.18 1.04v11.68c0 1.26-.42 1.66-1.7 1.66-.98 0-1.36-.2-2.38-2.02l-3.78-6.76c-.4-.72-.72-1.4-.96-2.3V178c0 .72-.58 1.04-1.18 1.04s-1.18-.32-1.18-1.04v-11.68c0-1.26.42-1.66 1.7-1.66.98 0 1.36.22 2.38 2.02l3.78 6.76c.4.72.72 1.4.96 2.3v-10.12zM203.442 165.68c0-.76.6-1.1 1.28-1.1s1.28.34 1.28 1.1v7.34c0 2.84.94 3.8 3.04 3.8s3.04-.96 3.04-3.8v-7.34c0-.76.6-1.1 1.28-1.1s1.28.34 1.28 1.1v7.3c0 4.72-1.98 6.16-5.6 6.16-3.6 0-5.6-1.44-5.6-6.16v-7.3z"/>
    </g>
</svg>
