<svg width="375" height="240" viewBox="0 0 375 240" fill="none" xmlns="http://www.w3.org/2000/svg">
    <path fill="#F5EDDC" d="M0 0h375v240H0z"/>
    <g opacity=".6" fill="#D93400">
        <path d="m178.782 95-2.687 17.462c-.757 2.97-1.789 5.136-3.214 6.562-1.344 1.343-3.337 2.329-6.73 2.329a8.24 8.24 0 0 1-8.115-6.823c-.093-.538-.013-1.264.317-2.337l4.574-14.868A3.296 3.296 0 0 1 166.076 95h12.706zM196.344 95l2.686 17.462c.758 2.97 1.79 5.136 3.215 6.562 1.343 1.343 3.337 2.329 6.729 2.329a8.24 8.24 0 0 0 8.116-6.823c.092-.538.013-1.264-.317-2.337l-4.575-14.868A3.293 3.293 0 0 0 209.05 95h-12.706zM182.153 95l-2.711 17.623c-.085.551-.11.947-.087 1.265.161 2.237 1.018 4.075 2.327 5.34 1.287 1.245 3.208 2.125 5.881 2.125 2.672 0 4.593-.88 5.88-2.125 1.309-1.265 2.166-3.103 2.327-5.34.023-.318-.002-.714-.087-1.265L192.972 95h-10.819z"/>
        <path d="M161.21 123.539a11.492 11.492 0 0 0 4.941 1.109c5.706 0 9.039-2.372 11.097-6.02 1.747 3.586 5.318 6.02 10.314 6.02 4.997 0 8.568-2.434 10.315-6.021 2.057 3.649 5.391 6.021 11.097 6.021a11.48 11.48 0 0 0 4.942-1.11v24.168a3.295 3.295 0 0 1-3.294 3.295h-13.176v-13.177a3.294 3.294 0 0 0-3.294-3.294h-13.177a3.294 3.294 0 0 0-3.294 3.294v13.177h-13.176a3.295 3.295 0 0 1-3.295-3.295v-24.167zM157.26 168.54c0-2.24 1.8-4.06 5.16-4.06 1.44 0 2.64.24 3.62.74.58.3.76.96.44 1.54-.32.6-.86.74-1.42.5-.84-.36-1.54-.5-2.6-.5-1.74 0-2.66.9-2.66 1.74v.12c0 1 .56 1.46 3 1.96 3.34.68 4.66 2.02 4.66 4.16v.18c0 2.72-1.82 4.22-5.3 4.22-1.64 0-3.32-.46-4.38-1.12-.64-.4-.68-1.1-.32-1.66.38-.58.94-.72 1.54-.38.94.54 2.08.86 3.28.86 1.84 0 2.62-.74 2.62-1.72v-.14c0-1.12-.82-1.68-2.74-2.06-3.36-.66-4.9-1.58-4.9-4.24v-.14zM168.599 165.78c0-.58.28-1.08.9-1.08h9.46c.62 0 .9.5.9 1.08 0 .58-.28 1.08-.9 1.08h-3.44v11.08c0 .76-.6 1.1-1.28 1.1s-1.28-.34-1.28-1.1v-11.08h-3.46c-.62 0-.9-.5-.9-1.08z"/>
        <path fill-rule="evenodd" clip-rule="evenodd" d="M180.869 171.4c0-4.86 2.24-6.92 6.12-6.92s6.12 2.06 6.12 6.92v.82c0 4.86-2.24 6.92-6.12 6.92s-6.12-2.06-6.12-6.92v-.82zm9.66.2c0-3.62-1.2-4.78-3.54-4.78s-3.54 1.16-3.54 4.78v.42c0 3.62 1.2 4.78 3.54 4.78s3.54-1.16 3.54-4.78v-.42zM195.804 166.36c0-1.26.42-1.66 1.7-1.66h3.76c2.96 0 4.68 1.6 4.68 4.1v.36c0 1.84-.94 3.06-2.42 3.66l2.52 4.46c.36.66.1 1.3-.52 1.6-.62.28-1.34.26-1.68-.42l-2.74-5.24c-.14.02-.3.02-.44.02h-2.3v4.7c0 .76-.6 1.1-1.28 1.1s-1.28-.34-1.28-1.1v-11.58zm5.12.48h-2.56v4.26h2.34c1.94 0 2.7-.68 2.7-1.98v-.26c0-1.32-.76-2.02-2.48-2.02z"/>
        <path d="M209.007 166.36c0-1.26.42-1.66 1.7-1.66h6.82c.6 0 .88.48.88 1.06 0 .56-.28 1.06-.88 1.06h-5.98v3.78h5.58c.58 0 .86.48.86 1.04s-.28 1.04-.86 1.04h-5.58v4.12h6.12c.6 0 .88.5.88 1.06 0 .58-.28 1.06-.88 1.06h-6.96c-1.28 0-1.7-.4-1.7-1.66v-10.9z"/>
    </g>
</svg>
